<?xml version="1.0" standalone="no"?>
<!DOCTYPE svg PUBLIC "-//W3C//DTD SVG 20010904//EN"
 "http://www.w3.org/TR/2001/REC-SVG-20010904/DTD/svg10.dtd">
<svg version="1.0" xmlns="http://www.w3.org/2000/svg"
 width="225.000000pt" height="225.000000pt" viewBox="0 0 225.000000 225.000000"
 preserveAspectRatio="xMidYMid meet">

<g transform="translate(0.000000,225.000000) scale(0.100000,-0.100000)"
fill="#000000" stroke="none">
<path d="M953 2235 c-178 -27 -349 -99 -493 -206 -474 -353 -597 -996 -288
-1499 62 -101 231 -276 328 -339 402 -261 894 -251 1286 25 80 57 218 201 277
291 253 381 244 899 -21 1268 -53 74 -178 200 -252 255 -128 94 -281 163 -437
195 -109 23 -288 27 -400 10z m688 -669 c-10 -12 -8 -14 11 -9 17 3 19 2 9 -5
-7 -5 -10 -15 -7 -21 10 -15 -37 -200 -70 -276 -7 -16 -18 -49 -25 -73 -13
-45 -39 -78 -39 -49 0 10 -6 13 -19 10 -37 -9 -32 44 16 197 52 165 66 198 97
222 26 21 43 23 27 4z m-387 -241 c54 -23 140 -115 177 -191 26 -51 30 -70 24
-103 l-7 -40 -71 70 c-39 38 -77 69 -84 69 -7 0 -13 4 -13 8 0 19 -89 37 -175
37 -79 0 -96 -4 -142 -28 -46 -25 -52 -33 -58 -69 -9 -52 10 -64 93 -61 8 1
11 -5 7 -15 -22 -57 -55 -190 -60 -244 -13 -125 -41 -167 -119 -175 -42 -5
-48 -3 -80 29 -28 28 -42 59 -81 184 -25 82 -67 211 -91 288 -25 76 -42 141
-39 144 3 3 5 0 5 -7 0 -7 12 -25 28 -41 42 -42 52 -58 52 -77 0 -15 2 -16 10
-3 8 12 10 11 10 -6 0 -26 54 -86 90 -101 21 -9 34 -7 64 8 21 10 42 16 46 14
4 -3 16 7 25 21 9 15 12 23 6 19 -8 -5 -10 1 -5 19 4 16 0 40 -10 61 -17 35
-17 35 14 81 32 45 93 97 140 117 66 27 168 24 244 -8z m-722 -77 c-7 -7 -12
-8 -12 -2 0 14 12 26 19 19 2 -3 -1 -11 -7 -17z m949 -265 c-12 -20 -14 -14
-5 12 4 9 9 14 11 11 3 -2 0 -13 -6 -23z m-141 -191 c0 -18 3 -23 9 -14 17 28
66 -123 54 -169 -3 -11 0 -19 8 -19 7 0 10 -3 7 -6 -10 -9 -67 25 -82 49 -8
12 -20 60 -25 107 -14 108 -14 103 9 90 12 -7 20 -21 20 -38z"/>
</g>
</svg>
